<svg xmlns="http://www.w3.org/2000/svg" viewBox="0 0 64 64" fill="currentColor">
  <!-- Farmer hat -->
  <path d="M32 8c-8 0-14 4-16 10h32c-2-6-8-10-16-10z" fill="#8B4513"/>
  <ellipse cx="32" cy="18" rx="18" ry="3" fill="#A0522D"/>
  
  <!-- Head -->
  <circle cx="32" cy="28" r="8" fill="#FDBCB4"/>
  
  <!-- Eyes -->
  <circle cx="29" cy="26" r="1.5" fill="#333"/>
  <circle cx="35" cy="26" r="1.5" fill="#333"/>
  
  <!-- Nose -->
  <path d="M32 28l-1 2h2z" fill="#F4A460"/>
  
  <!-- Mouth -->
  <path d="M30 31c1 1 3 1 4 0" stroke="#333" stroke-width="1" fill="none"/>
  
  <!-- Body -->
  <rect x="26" y="36" width="12" height="16" rx="2" fill="#4A90E2"/>
  
  <!-- Arms -->
  <rect x="20" y="38" width="6" height="12" rx="3" fill="#FDBCB4"/>
  <rect x="38" y="38" width="6" height="12" rx="3" fill="#FDBCB4"/>
  
  <!-- Tool in hand -->
  <rect x="42" y="42" width="2" height="12" fill="#8B4513"/>
  <path d="M41 40h4l-1 4h-2z" fill="#C0C0C0"/>
  
  <!-- Legs -->
  <rect x="28" y="52" width="3" height="10" fill="#2E7D32"/>
  <rect x="33" y="52" width="3" height="10" fill="#2E7D32"/>
  
  <!-- Feet -->
  <ellipse cx="29.5" cy="62" rx="2" ry="1" fill="#654321"/>
  <ellipse cx="34.5" cy="62" rx="2" ry="1" fill="#654321"/>
</svg>
